<?xml version="1.0" standalone="no"?>
<!DOCTYPE svg PUBLIC "-//W3C//DTD SVG 20010904//EN"
 "http://www.w3.org/TR/2001/REC-SVG-20010904/DTD/svg10.dtd">
<svg version="1.0" xmlns="http://www.w3.org/2000/svg"
 width="453.000000pt" height="453.000000pt" viewBox="0 0 453.000000 453.000000"
 preserveAspectRatio="xMidYMid meet">
<metadata>
Created by potrace 1.14, written by Peter Selinger 2001-2017
</metadata>
<g transform="translate(0.000000,453.000000) scale(0.100000,-0.100000)"
fill="#000000" stroke="none">
<path d="M4 3471 c-2 -2 -4 -78 -4 -168 l0 -163 316 -2 316 -3 0 -1037 0
-1038 167 1 166 1 0 1039 0 1039 215 1 c118 0 260 1 315 2 l100 2 0 165 0 165
-793 0 c-437 0 -796 -2 -798 -4z"/>
<path d="M1904 3471 c-2 -2 -4 -402 -4 -888 l0 -883 33 -1 c42 0 1177 0 1242
0 l50 1 -2 543 c-1 298 -2 554 -2 570 l-1 27 -165 0 -165 0 -2 -406 -3 -407
-305 1 c-168 0 -315 1 -326 1 l-22 1 0 550 c0 303 4 553 9 556 7 4 756 6 1735
4 l181 0 1 -1022 c0 -563 1 -1031 1 -1040 1 -16 17 -17 166 -17 l165 1 -2
1206 -3 1207 -1288 0 c-709 0 -1290 -2 -1293 -4z"/>
<path d="M2 1953 l3 -888 163 -2 162 -2 0 889 0 890 -165 0 -165 0 2 -887z"/>
<path d="M1269 2783 c0 -72 0 -640 0 -1255 l1 -467 1293 2 1292 2 0 878 c0
484 -3 883 -6 888 -3 6 -74 8 -165 7 l-159 -3 0 -710 c0 -390 -3 -715 -7 -720
-4 -7 -329 -10 -955 -9 -521 1 -951 2 -955 3 -5 0 -8 325 -8 721 l0 720 -165
0 -165 0 -1 -57z"/>
</g>
</svg>
