<?xml version="1.0" standalone="no"?>
<!DOCTYPE svg PUBLIC "-//W3C//DTD SVG 20010904//EN"
 "http://www.w3.org/TR/2001/REC-SVG-20010904/DTD/svg10.dtd">
<svg version="1.0" xmlns="http://www.w3.org/2000/svg"
 width="700.000000pt" height="700.000000pt" viewBox="0 0 700.000000 700.000000"
 preserveAspectRatio="xMidYMid meet">
<metadata>
Created by potrace 1.14, written by Peter Selinger 2001-2017
</metadata>
<g transform="translate(0.000000,700.000000) scale(0.100000,-0.100000)"
fill="#000000" stroke="none">
<path d="M3342 5940 c-1060 -82 -1942 -834 -2185 -1865 -46 -193 -61 -331 -61
-560 0 -232 14 -353 64 -561 110 -458 309 -814 640 -1144 214 -214 394 -343
655 -470 943 -458 2051 -269 2790 475 378 381 606 850 686 1415 16 109 16 470
0 580 -100 712 -455 1300 -1026 1701 -446 313 -1019 470 -1563 429z m389 -640
c789 -80 1438 -665 1598 -1439 124 -597 -60 -1220 -488 -1650 -474 -477 -1152
-652 -1803 -465 -566 162 -1025 603 -1213 1166 -150 451 -122 928 81 1358 328
692 1062 1107 1825 1030z"/>
<path d="M4153 4789 c-537 -48 -984 -230 -1246 -509 -88 -93 -142 -172 -198
-288 -174 -361 -204 -842 -84 -1375 26 -118 91 -336 104 -349 21 -23 220 152
284 251 78 119 97 195 122 506 25 310 52 443 119 590 61 131 161 203 381 270
289 88 346 109 417 150 180 105 288 300 327 588 6 43 11 101 11 128 l0 49 -72
-1 c-40 -1 -114 -5 -165 -10z"/>
<path d="M3895 3344 c-137 -58 -230 -77 -385 -79 -130 -2 -145 -4 -151 -21
-12 -31 -41 -303 -33 -316 10 -15 183 -3 254 18 166 50 302 165 383 327 27 52
33 75 25 84 -14 18 -23 16 -93 -13z"/>
<path d="M1170 1861 l-155 -17 165 -40 165 -40 16 35 c9 20 19 46 23 59 9 27
10 27 -214 3z"/>
</g>
</svg>
